<?xml version="1.0" encoding="UTF-8" standalone="no"?>
<!-- Created with Inkscape (http://www.inkscape.org/) -->

<svg
   width="180"
   height="180"
   viewBox="0 0 16 16"
   version="1.1"
   id="svg1"
   xml:space="preserve"
   inkscape:export-filename="favicon-180"
   inkscape:export-xdpi="96"
   inkscape:export-ydpi="96"
   inkscape:version="1.4 (e7c3feb100, 2024-10-09)"
   sodipodi:docname="Noisenet.svg"
   xmlns:inkscape="http://www.inkscape.org/namespaces/inkscape"
   xmlns:sodipodi="http://sodipodi.sourceforge.net/DTD/sodipodi-0.dtd"
   xmlns="http://www.w3.org/2000/svg"
   xmlns:svg="http://www.w3.org/2000/svg"><sodipodi:namedview
     id="namedview1"
     pagecolor="#ffffff"
     bordercolor="#000000"
     borderopacity="0.25"
     inkscape:showpageshadow="2"
     inkscape:pageopacity="0.0"
     inkscape:pagecheckerboard="0"
     inkscape:deskcolor="#d1d1d1"
     inkscape:document-units="px"
     inkscape:export-bgcolor="#ffffff00"
     inkscape:zoom="3.0992466"
     inkscape:cx="30.65261"
     inkscape:cy="89.537889"
     inkscape:window-width="1559"
     inkscape:window-height="1190"
     inkscape:window-x="0"
     inkscape:window-y="0"
     inkscape:window-maximized="0"
     inkscape:current-layer="layer1" /><defs
     id="defs1"><marker
       style="overflow:visible"
       id="marker4"
       refX="0"
       refY="0"
       orient="auto"
       inkscape:stockid="Stop"
       markerWidth="1"
       markerHeight="1"
       viewBox="0 0 1 1"
       inkscape:isstock="true"
       inkscape:collect="always"
       preserveAspectRatio="xMidYMid"><path
         style="fill:none;stroke:context-stroke;stroke-width:1"
         d="M 0,4 V -4"
         id="path4" /></marker><marker
       style="overflow:visible"
       id="Stop"
       refX="0"
       refY="0"
       orient="auto"
       inkscape:stockid="Stop"
       markerWidth="1"
       markerHeight="1"
       viewBox="0 0 1 1"
       inkscape:isstock="true"
       inkscape:collect="always"
       preserveAspectRatio="xMidYMid"><path
         style="fill:none;stroke:context-stroke;stroke-width:1"
         d="M 0,4 V -4"
         id="path23" /></marker><marker
       inkscape:stockid="Distance start"
       orient="auto"
       refY="0"
       refX="0"
       id="DistanceStart"
       style="overflow:visible"
       markerWidth="1"
       markerHeight="1"
       viewBox="0 0 1 1"
       inkscape:isstock="true"
       inkscape:collect="always"
       preserveAspectRatio="xMidYMid"><g
         transform="scale(0.6)"
         id="g13"><path
           d="m 0,-40 v 0"
           id="path11" /><path
           d="M 0,0 8,5 V -5 Z"
           style="fill:context-stroke;fill-rule:evenodd;stroke:none"
           sodipodi:nodetypes="ccccc"
           id="path12" /><path
           d="M 0,-8 V 40"
           style="fill:none;stroke:context-stroke;stroke-width:1;stroke-linecap:square"
           id="path13" /></g></marker><marker
       style="overflow:visible"
       id="Tail"
       refX="0"
       refY="0"
       orient="auto-start-reverse"
       inkscape:stockid="Arrow tail"
       markerWidth="1"
       markerHeight="1"
       viewBox="0 0 1 1"
       inkscape:isstock="true"
       inkscape:collect="always"
       preserveAspectRatio="xMidYMid"><path
         style="fill:none;fill-rule:evenodd;stroke:context-stroke;stroke-width:1;stroke-linecap:round"
         d="m -3.0000001,-3 -3.1102256,3 3.1102256,3 M -4.0952644e-8,-3 -3.0000001,0 -4.0952644e-8,3 M 3,3 -4.0952644e-8,0 3,-3"
         sodipodi:nodetypes="ccccccccc"
         id="path10" /></marker><style
       id="style1">.cls-1{fill:none;stroke:#000000;stroke-linecap:round;stroke-linejoin:round;stroke-width:20px;}</style><filter
       inkscape:collect="always"
       style="color-interpolation-filters:sRGB"
       id="filter4"
       x="-0.064996503"
       y="-0.017916649"
       width="1.129993"
       height="1.0358292"><feGaussianBlur
         inkscape:collect="always"
         stdDeviation="0.070807105"
         id="feGaussianBlur4" /></filter></defs><g
     inkscape:label="Layer 1"
     inkscape:groupmode="layer"
     id="layer1"
     style="display:inline"><g
       style="display:inline;fill:none;filter:url(#filter4)"
       id="g4"
       transform="matrix(0.8,0,0,0.8,-1.6,-1.6)"><path
         d="M 4,15 H 20"
         stroke="#000000"
         stroke-width="2"
         stroke-linecap="round"
         stroke-linejoin="round"
         id="path1-6" /><path
         d="M 4,9 H 20"
         stroke="#000000"
         stroke-width="2"
         stroke-linecap="round"
         stroke-linejoin="round"
         id="path2-0" /><circle
         cx="12"
         cy="12"
         r="9"
         stroke="#000000"
         stroke-width="2"
         stroke-linecap="round"
         stroke-linejoin="round"
         id="circle2-6" /><path
         d="m 12.0004,20.8182 -0.7142,0.6999 c 0.188,0.192 0.4455,0.3001 0.7142,0.3001 0.2687,0 0.5261,-0.1081 0.7142,-0.3001 z m 0,-17.63632 0.7142,-0.6999 c -0.1881,-0.19193 -0.4455,-0.3001 -0.7142,-0.3001 -0.2687,0 -0.5262,0.10817 -0.7143,0.3001 z m 2.6,8.81822 c 0,3.161 -1.2631,6.025 -3.3142,8.1182 l 1.4284,1.3998 c 2.4027,-2.4519 3.8858,-5.8128 3.8858,-9.518 z M 11.2861,3.88178 c 2.0512,2.09323 3.3143,4.95725 3.3143,8.11832 h 2 c 0,-3.70532 -1.4831,-7.06621 -3.8858,-9.51812 z M 9.40039,12.0001 c 0,-3.16107 1.26301,-6.02509 3.31421,-8.11832 L 11.2861,2.48198 C 8.88347,4.93389 7.40039,8.29478 7.40039,12.0001 Z m 3.31421,8.1182 C 10.6634,18.0251 9.40039,15.1611 9.40039,12.0001 h -2 c 0,3.7052 1.48309,7.0661 3.88581,9.518 z"
         fill="#000000"
         id="path3-2" /></g><g
       data-name="E444, Sound, square, wave"
       id="E444_Sound_square_wave"
       transform="matrix(0.03022248,0,0,0.03022248,0.26304642,0.26304642)"
       style="display:inline;opacity:0.933594;stroke:#843ba5;stroke-width:37.4073;stroke-linejoin:round;stroke-dasharray:none;stroke-dashoffset:0;stroke-opacity:1"><circle
         class="cls-1"
         cx="256"
         cy="256"
         r="246"
         id="circle1"
         style="stroke:#843ba5;stroke-width:37.4073;stroke-linejoin:round;stroke-dasharray:none;stroke-dashoffset:0;stroke-opacity:1" /><path
         class="cls-1"
         d="m 138.35,245.3 v -48.13 a 58.83,58.83 0 0 1 58.82,-58.82 v 0 A 58.83,58.83 0 0 1 256,197.17 v 117.66 a 58.83,58.83 0 0 0 58.83,58.82 v 0 a 58.83,58.83 0 0 0 58.82,-58.82 v -90.92"
         id="path1-3"
         style="stroke:#843ba5;stroke-width:37.4073;stroke-linejoin:round;stroke-dasharray:none;stroke-dashoffset:0;stroke-opacity:1" /></g></g></svg>
