<?xml version="1.0" standalone="no"?>
<!DOCTYPE svg PUBLIC "-//W3C//DTD SVG 20010904//EN"
 "http://www.w3.org/TR/2001/REC-SVG-20010904/DTD/svg10.dtd">
<svg version="1.0" xmlns="http://www.w3.org/2000/svg"
 width="180.000000pt" height="180.000000pt" viewBox="0 0 180.000000 180.000000"
 preserveAspectRatio="xMidYMid meet">
<metadata>
Created by potrace 1.16, written by Peter Selinger 2001-2019
</metadata>
<g transform="translate(0.000000,180.000000) scale(0.100000,-0.100000)"
fill="#000000" stroke="none">
<path d="M757 1790 c-348 -63 -619 -305 -723 -645 -25 -81 -28 -105 -28 -245
0 -140 3 -164 28 -245 95 -310 333 -543 641 -627 115 -31 335 -31 450 0 253
69 466 243 580 475 70 143 89 224 89 397 0 173 -19 254 -89 397 -113 230 -310
395 -562 469 -69 20 -116 27 -213 29 -69 2 -147 0 -173 -5z m-101 -268 c-19
-32 -48 -88 -64 -123 -40 -90 -64 -127 -87 -133 -11 -3 -66 -6 -123 -6 l-103
0 17 33 c26 50 172 190 238 227 60 34 148 71 155 65 2 -2 -13 -30 -33 -63z
m604 1 c71 -39 216 -177 244 -230 l17 -33 -129 0 -128 0 -33 83 c-18 45 -53
117 -77 159 -24 43 -44 80 -44 82 0 10 85 -25 150 -61z m-312 -30 c38 -57 94
-159 113 -210 l10 -26 -158 8 c-87 4 -159 8 -161 10 -2 2 4 17 13 35 9 18 14
34 11 37 -12 12 105 203 124 203 5 0 27 -26 48 -57z m-498 -419 l32 -7 -7 -90
c-5 -55 -4 -92 2 -96 6 -3 12 -41 15 -83 l5 -78 -148 0 -148 0 -8 38 c-4 20
-8 84 -8 142 0 58 4 122 8 143 l8 37 108 0 c60 0 123 -3 141 -6z m674 -33 c3
-20 6 -83 6 -141 0 -58 -3 -121 -6 -141 l-6 -36 -218 0 -218 0 -6 30 c-3 16
-6 82 -6 147 0 65 3 131 6 147 l6 30 218 0 218 0 6 -36z m483 2 c10 -49 10
-237 0 -285 l-8 -38 -108 0 c-60 0 -122 3 -138 6 l-29 6 1 157 c0 120 -3 162
-14 174 -12 16 -2 17 137 17 l151 0 8 -37z m-1038 -585 c18 -46 53 -118 77
-160 24 -43 44 -80 44 -82 0 -10 -85 25 -150 61 -71 39 -216 177 -244 231
l-17 32 129 0 128 0 33 -82z m479 67 c2 -2 -4 -17 -13 -35 -9 -18 -14 -34 -11
-37 12 -12 -105 -203 -124 -203 -19 0 -128 180 -161 267 l-10 26 158 -8 c87
-4 159 -8 161 -10z m456 -17 c-28 -54 -173 -192 -244 -231 -68 -37 -150 -71
-150 -60 0 3 16 31 35 63 19 31 47 86 63 121 37 85 64 128 82 133 8 2 63 4
123 5 l108 1 -17 -32z"/>
</g>
</svg>
